<svg width="424" height="321" viewBox="0 0 424 321" fill="none" xmlns="http://www.w3.org/2000/svg">
<path d="M420.733 154.057C384.452 104.536 348.326 54.9481 312.299 5.30438C309.623 1.63326 306.383 0.00413931 301.074 0.0376145C281.102 0.126882 261.131 0.0710897 241.145 0.0822481C240.371 0.0822481 239.737 0.584376 239.737 1.19809V36.6371C239.737 37.1951 239.92 37.753 240.244 38.244C244.216 44.024 248.202 49.7929 252.258 55.5395C264.736 73.2144 276.919 91.0678 290.581 108.162C306.116 127.589 328.594 139.239 358.185 140.979C365.283 141.403 365.523 144.174 365.523 151.546C365.523 156.609 365.523 161.661 365.523 167.436C365.523 175.651 364.804 177.858 357.79 178.248C324.974 180.089 302.228 194.495 286.68 216.075C270.793 238.124 255.497 260.43 240.244 282.758C239.906 283.249 239.737 283.796 239.737 284.353V319.804C239.737 320.417 240.371 320.92 241.145 320.92C248.202 320.92 255.272 320.886 262.328 320.897C275.469 320.897 288.609 320.83 301.75 320.942C306.496 320.986 309.468 319.547 311.89 316.211C348.016 266.4 384.212 216.633 420.592 166.945C423.93 162.381 424.085 158.654 420.733 154.068V154.057Z" fill="#005BAA"/>
<path d="M122.741 0.00340395C117.164 -0.0858632 113.727 1.57674 110.91 5.4487C74.8125 55.2821 38.5881 105.06 2.26504 154.781C-0.650379 158.776 -0.833473 162.146 2.19462 166.152C10.5043 177.154 18.4477 188.346 26.5461 199.46C54.7004 238.112 82.8968 276.743 110.924 315.451C113.699 319.29 117.037 321.03 122.685 320.997C142.459 320.874 162.247 320.919 182.035 320.919C182.81 320.919 183.444 320.417 183.444 319.803V284.196C183.444 283.639 183.261 283.081 182.923 282.59C179.556 277.691 176.162 272.793 172.726 267.916C159.782 249.583 147.276 231.027 133.135 213.285C117.389 193.512 94.6148 181.55 64.4043 179.955C59.0242 179.665 56.9538 177.723 57.0242 173.617C57.1651 166.554 57.0242 159.479 57.0383 152.416C57.0665 143.79 57.3341 143.467 68.3479 142.541C86.7136 140.979 103.629 135.991 115.938 125.178C127.304 115.203 137.684 104.145 146.064 92.473C158.74 74.8204 170.866 56.9112 182.923 38.9685C183.246 38.4887 183.415 37.9419 183.415 37.3952V1.16388C183.415 0.550165 182.782 0.0480375 182.007 0.0480375C174.923 0.0480375 167.838 0.0591959 160.74 0.0591959C148.064 0.0591959 135.388 0.193097 122.727 0.00340395H122.741Z" fill="#005BAA"/>
</svg>
