<svg width="1010" height="295" viewBox="0 0 1010 295" fill="none" xmlns="http://www.w3.org/2000/svg">
<path d="M1008.58 63.227C997.378 47.9462 986.224 32.6447 975.099 17.326C974.273 16.1932 973.273 15.6905 971.633 15.7008C965.467 15.7284 959.3 15.7112 953.129 15.7146C952.89 15.7146 952.694 15.8696 952.694 16.0589V26.9945C952.694 27.1666 952.751 27.3388 952.851 27.4903C954.077 29.2738 955.308 31.054 956.56 32.8272C960.413 38.2812 964.175 43.7903 968.394 49.0652C973.19 55.0598 980.131 58.6545 989.268 59.1916C991.46 59.3224 992.016 60.2624 991.534 62.4523C991.177 64.074 991.147 65.7371 991.534 67.3554C992.073 69.5728 991.312 70.5713 989.146 70.6918C979.013 71.2599 971.99 75.7051 967.189 82.3642C962.283 89.1679 957.561 96.0508 952.851 102.941C952.747 103.092 952.694 103.261 952.694 103.433V114.372C952.694 114.561 952.89 114.716 953.129 114.716C955.308 114.716 957.491 114.706 959.67 114.709C963.727 114.709 967.785 114.689 971.842 114.723C973.308 114.737 974.225 114.293 974.973 113.263C986.128 97.8929 997.304 82.5364 1008.54 67.2039C1009.57 65.7956 1009.62 64.6456 1008.58 63.2305V63.227Z" fill="#005BAA"/>
<path d="M916.569 15.6903C914.847 15.6627 913.786 16.1757 912.916 17.3705C901.77 32.7478 890.585 48.1078 879.369 63.4506C878.469 64.6832 878.413 65.7231 879.348 66.9592C881.913 70.3541 884.366 73.8076 886.867 77.237C895.56 89.1642 904.266 101.084 912.92 113.029C913.777 114.213 914.808 114.75 916.552 114.74C922.657 114.702 928.767 114.716 934.878 114.716C935.117 114.716 935.312 114.561 935.312 114.372V103.385C935.312 103.212 935.256 103.04 935.152 102.889C934.112 101.377 933.064 99.8656 932.003 98.3609C928.006 92.7038 924.145 86.9778 919.778 81.5031C914.917 75.4018 907.884 71.7108 898.556 71.2184C896.895 71.1289 896.256 70.5297 896.278 69.2627C896.321 67.0831 896.277 64.9001 896.282 62.7206C896.291 60.059 896.373 59.9592 899.774 59.6734C905.445 59.1914 910.668 57.6523 914.469 54.3158C917.978 51.2376 921.183 47.8254 923.771 44.2239C927.685 38.7768 931.429 33.2505 935.152 27.7138C935.252 27.5658 935.304 27.3971 935.304 27.2283V16.0483C935.304 15.859 935.108 15.704 934.869 15.704C932.681 15.704 930.494 15.7075 928.302 15.7075C924.388 15.7075 920.474 15.7488 916.565 15.6903H916.569Z" fill="#005BAA"/>
<path d="M328.325 253.402C300.605 226.206 286.745 192.732 286.745 152.983C286.745 113.234 300.605 79.7606 328.325 52.5637C356.044 25.3668 390.302 11.7683 431.097 11.7683C471.893 11.7683 506.15 25.3668 533.87 52.5637C561.59 79.7606 575.45 113.234 575.45 152.983C575.45 192.732 561.59 226.206 533.87 253.402C506.15 280.599 471.893 294.198 431.097 294.198C390.302 294.198 356.044 280.599 328.325 253.402ZM369.512 89.0442C353.037 106.304 344.8 127.617 344.8 152.983C344.8 178.349 353.037 199.662 369.512 216.922C386.249 234.182 406.777 242.811 431.097 242.811C455.679 242.811 476.208 234.182 492.683 216.922C509.158 199.662 517.395 178.349 517.395 152.983C517.395 127.617 509.158 106.304 492.683 89.0442C476.208 71.7846 455.679 63.1548 431.097 63.1548C406.777 63.1548 386.249 71.7846 369.512 89.0442Z" fill="#005BAA"/>
<path d="M102.381 39.2267C121.732 20.9211 146.053 11.7683 175.342 11.7683C204.631 11.7683 228.82 20.7904 247.91 38.8345C267.262 56.8786 276.938 79.6298 276.938 107.088C276.938 124.086 270.4 144.092 257.325 167.105L186.325 290.275H122.386L174.95 197.309C147.491 200.185 123.694 193.125 103.558 176.127C83.6829 158.867 73.7456 135.854 73.7456 107.088C73.7456 80.1529 83.2907 57.5323 102.381 39.2267ZM143.961 138.862C152.329 146.968 162.789 151.022 175.342 151.022C187.894 151.022 198.224 146.968 206.331 138.862C214.699 130.493 218.883 119.902 218.883 107.088C218.883 94.2743 214.699 83.814 206.331 75.7072C198.224 67.3389 187.894 63.1548 175.342 63.1548C162.789 63.1548 152.329 67.3389 143.961 75.7072C135.854 83.814 131.801 94.2743 131.801 107.088C131.801 119.902 135.854 130.493 143.961 138.862Z" fill="#E7E7E7"/>
<path d="M797.863 15.6906H853.957V290.275H795.902L658.218 114.933C654.818 110.749 651.68 105.911 648.803 100.419C645.927 94.6662 643.573 89.3053 641.743 84.3366H640.958C642.789 89.5668 644.227 95.32 645.273 101.596C646.58 107.872 647.234 113.626 647.234 118.856V290.275H591.141V15.6906H649.196L787.272 192.601C790.41 196.785 793.418 201.754 796.294 207.507C799.432 212.999 801.917 218.229 803.747 223.198L804.532 222.806C802.44 217.837 800.74 212.214 799.432 205.938C798.386 199.662 797.863 193.909 797.863 188.679V15.6906Z" fill="#005BAA"/>
<path d="M0 31.7733C0 22.882 3.1381 15.429 9.41432 9.41431C15.6905 3.1381 23.2743 0 32.1656 0C40.7954 0 48.2484 3.1381 54.5246 9.41431C60.8008 15.429 63.9389 22.882 63.9389 31.7733C63.9389 40.4031 60.8008 47.8561 54.5246 54.1323C48.2484 60.4085 40.7954 63.5466 32.1656 63.5466C23.2743 63.5466 15.6905 60.4085 9.41432 54.1323C3.1381 47.8561 0 40.4031 0 31.7733ZM58.4472 290.275H5.49168V87.8669H58.4472V290.275Z" fill="#E7E7E7"/>
</svg>
